<?xml version="1.0" encoding="UTF-8"?>
<svg version="1.1" xmlns="http://www.w3.org/2000/svg" width="237" height="203">
<path d="M0 0 C78.21 0 156.42 0 237 0 C237 66.99 237 133.98 237 203 C158.79 203 80.58 203 0 203 C0 136.01 0 69.02 0 0 Z " fill="#1A1A1A" transform="translate(0,0)"/>
<path d="M0 0 C5.97730032 -0.12414511 11.95384052 -0.21459663 17.93212891 -0.2746582 C19.96318647 -0.29971104 21.9941547 -0.3337632 24.02490234 -0.37719727 C26.95432648 -0.43825687 29.88255279 -0.46630227 32.8125 -0.48828125 C34.16142334 -0.52699089 34.16142334 -0.52699089 35.53759766 -0.56648254 C43.24889114 -0.5698677 47.95215109 2.07833592 53.453125 7.3515625 C56.60900363 12.75480924 56.09737693 19.00315786 55 25 C52.82184927 28.19823489 50.43431166 30.2276745 47 32 C46.34 32 45.68 32 45 32 C45 32.66 45 33.32 45 34 C45.9075 34.226875 46.815 34.45375 47.75 34.6875 C52.0381147 36.41923863 53.95989786 38.91979573 56 43 C56.5072965 48.55531248 56.76260422 53.41830236 54.3125 58.5 C50.21783624 62.92666353 46.17540401 66.65273282 39.93270874 67.17193604 C37.39408031 67.231328 34.86337478 67.22466724 32.32421875 67.1953125 C30.93648003 67.19106766 30.93648003 67.19106766 29.52070618 67.18673706 C26.57617058 67.17557392 23.63194312 67.15047637 20.6875 67.125 C18.68685336 67.11496521 16.68620194 67.10584023 14.68554688 67.09765625 C9.7902465 67.07564722 4.89517543 67.04114391 0 67 C0 63.37 0 59.74 0 56 C2.97 56 5.94 56 9 56 C9 41.15 9 26.3 9 11 C6.03 11 3.06 11 0 11 C0 7.37 0 3.74 0 0 Z " fill="#FAFAFA" transform="translate(14,63)"/>
<path d="M0 0 C5.27886448 2.89519118 8.70166082 7.01385089 11.1875 12.4375 C11.89658405 15.84110343 11.9511912 18.97022007 11.8125 22.4375 C7.5225 22.4375 3.2325 22.4375 -1.1875 22.4375 C-1.249375 21.2 -1.31125 19.9625 -1.375 18.6875 C-1.79459018 15.65354025 -2.14884569 14.49081629 -4 11.9375 C-8.87862347 9.64167719 -13.88721909 9.62824115 -19.1875 10.4375 C-21.56272814 11.6187785 -21.56272814 11.6187785 -23.1875 13.4375 C-23.84450843 18.0376553 -23.84450843 18.0376553 -21.93432617 22.06469727 C-19.90968478 23.65583054 -18.28084871 24.22643275 -15.80078125 24.90234375 C-14.94419922 25.14533203 -14.08761719 25.38832031 -13.20507812 25.63867188 C-12.31240234 25.88166016 -11.41972656 26.12464844 -10.5 26.375 C7.6198258 31.33622168 7.6198258 31.33622168 11.9609375 38.1875 C14.09030827 43.81372735 13.98162963 50.2967026 11.890625 55.9140625 C8.71982698 61.41148505 4.61890132 64.50203289 -1.421875 66.515625 C-9.95719738 68.60518525 -19.50372739 68.87780063 -27.39453125 64.62890625 C-32.72017037 61.09008287 -36.22009128 56.50098916 -38.1875 50.4375 C-38.48988294 47.34647434 -38.38232685 44.55472961 -38.1875 41.4375 C-34.2275 41.4375 -30.2675 41.4375 -26.1875 41.4375 C-25.94 42.84 -25.6925 44.2425 -25.4375 45.6875 C-24.55407524 49.7007725 -23.56855716 51.90170713 -20.1875 54.4375 C-17.51094199 55.77577901 -15.36315948 55.64328556 -12.375 55.6875 C-11.33730469 55.71328125 -10.29960937 55.7390625 -9.23046875 55.765625 C-5.51291449 55.36475907 -2.85010007 54.10010007 -0.1875 51.4375 C-0.11570036 49.91821962 -0.10357993 48.39582518 -0.125 46.875 C-0.13402344 46.04871094 -0.14304688 45.22242188 -0.15234375 44.37109375 C-0.16394531 43.73300781 -0.17554688 43.09492187 -0.1875 42.4375 C-5.01940357 40.74209524 -9.80453577 39.26543765 -14.78173828 38.05029297 C-22.85597408 36.04926058 -29.36971957 34.05003901 -34.625 27.3125 C-37.33250756 22.33068608 -37.97404475 18.01563922 -37.1875 12.4375 C-34.74811255 6.30074503 -30.71496207 2.81539349 -25.1875 -0.5625 C-17.95581613 -2.97306129 -7.13662794 -2.86444415 0 0 Z " fill="#388C3C" transform="translate(206.1875,63.5625)"/>
<path d="M0 0 C1.27230469 0.01804687 2.54460937 0.03609375 3.85546875 0.0546875 C5.31919922 0.08949219 5.31919922 0.08949219 6.8125 0.125 C6.8125 2.435 6.8125 4.745 6.8125 7.125 C5.89017578 7.19847656 5.89017578 7.19847656 4.94921875 7.2734375 C4.14097656 7.34820312 3.33273438 7.42296875 2.5 7.5 C1.69949219 7.56960937 0.89898437 7.63921875 0.07421875 7.7109375 C-2.45974441 8.02064426 -2.45974441 8.02064426 -5.1875 10.125 C-5.77397521 14.71837012 -5.77397521 14.71837012 -3.98828125 18.8046875 C-1.63004413 20.53372036 0.10155384 20.62428921 3 20.8125 C3.90105469 20.87824219 4.80210938 20.94398437 5.73046875 21.01171875 C6.41753906 21.04910156 7.10460937 21.08648437 7.8125 21.125 C7.8125 18.815 7.8125 16.505 7.8125 14.125 C10.7825 14.125 13.7525 14.125 16.8125 14.125 C16.8125 16.435 16.8125 18.745 16.8125 21.125 C19.1225 21.125 21.4325 21.125 23.8125 21.125 C23.8125 23.435 23.8125 25.745 23.8125 28.125 C21.5025 28.125 19.1925 28.125 16.8125 28.125 C16.8125 35.385 16.8125 42.645 16.8125 50.125 C13.12420398 50.23339074 9.43912349 50.31251031 5.75 50.375 C4.71166016 50.40851563 3.67332031 50.44203125 2.60351562 50.4765625 C-3.93555144 50.55959827 -7.88143565 50.03966433 -13.1875 46.125 C-16.37948432 42.52114674 -16.75719574 39.01069128 -16.6171875 34.34375 C-15.88389493 30.55729383 -13.91643495 28.78896031 -11.1875 26.125 C-10.5275 25.465 -9.8675 24.805 -9.1875 24.125 C-9.991875 23.50625 -10.79625 22.8875 -11.625 22.25 C-14.42065221 19.93165426 -15.06278657 19.23138626 -15.4609375 15.69921875 C-15.73699855 7.8527143 -15.73699855 7.8527143 -12.875 4.0625 C-8.08953029 0.61251021 -5.92493866 -0.10871447 0 0 Z " fill="#F89400" transform="translate(115.1875,79.875)"/>
<path d="M0 0 C3.5578125 -0.0928125 3.5578125 -0.0928125 7.1875 -0.1875 C8.29387817 -0.22846802 8.29387817 -0.22846802 9.42260742 -0.27026367 C13.827366 -0.32558339 16.5179177 0.29171377 20 3 C21.44430855 5.88861709 21.37688506 7.79647701 21 11 C19.01457297 13.65497649 17.45303205 15.69576909 14.08886719 16.40014648 C11.92858995 16.49180846 9.84698628 16.43696289 7.6875 16.3125 C5.150625 16.209375 2.61375 16.10625 0 16 C0 10.72 0 5.44 0 0 Z " fill="#202020" transform="translate(36,102)"/>
<path d="M0 0 C2.58396679 -0.08112454 5.16537568 -0.14054748 7.75 -0.1875 C8.47960938 -0.21263672 9.20921875 -0.23777344 9.9609375 -0.26367188 C13.18696721 -0.30766319 15.5840963 -0.21187547 18.484375 1.265625 C20.56607513 3.6477767 20.48379738 5.88635484 20.53125 8.96484375 C19.72519006 12.05276454 18.6034803 13.15382136 16 15 C13.10550051 15.2906124 10.62050065 15.38186045 7.75 15.25 C6.63238281 15.22292969 6.63238281 15.22292969 5.4921875 15.1953125 C3.66090299 15.14835649 1.83028351 15.07661652 0 15 C0 10.05 0 5.1 0 0 Z " fill="#1E1E1E" transform="translate(36,75)"/>
<path d="M0 0 C1.5675 0.061875 3.135 0.12375 4.75 0.1875 C4.75 4.8075 4.75 9.4275 4.75 14.1875 C-5.71484632 14.55684752 -5.71484632 14.55684752 -8.078125 12.92578125 C-9.4728874 10.8568837 -9.68279978 9.66921461 -9.6875 7.1875 C-9.70683594 6.506875 -9.72617188 5.82625 -9.74609375 5.125 C-9.25 3.1875 -9.25 3.1875 -7.55078125 1.44921875 C-4.8022873 -0.05801987 -3.11121629 -0.12281117 0 0 Z " fill="#201D19" transform="translate(118.25,107.8125)"/>
</svg>
